<svg xmlns="http://www.w3.org/2000/svg" xmlns:xlink="http://www.w3.org/1999/xlink" width="375" height="812" viewBox="0 0 375 812">
  <defs>
    <linearGradient id="linear-gradient" x1="0.177" y1="1.141" x2="0.848" y2="-0.096" gradientUnits="objectBoundingBox">
      <stop offset="0" stop-color="#d2d2d1"/>
      <stop offset="0.116" stop-color="#dbdbda"/>
      <stop offset="0.371" stop-color="#eaeaea"/>
      <stop offset="0.571" stop-color="#f0f0f0"/>
      <stop offset="0.78" stop-color="#f4f4f4"/>
      <stop offset="0.976" stop-color="#fff"/>
    </linearGradient>
    <linearGradient id="linear-gradient-2" x1="0.823" y1="-0.141" x2="0.152" y2="1.096" xlink:href="#linear-gradient"/>
    <clipPath id="clip-splash_screen_1">
      <rect width="375" height="812"/>
    </clipPath>
  </defs>
  <g id="splash_screen_1" data-name="splash screen – 1" clip-path="url(#clip-splash_screen_1)">
    <rect width="375" height="812" fill="#3f51b5"/>
    <text id="بلدية_الجنيد" data-name="بلدية الجنيد" transform="translate(281 416)" fill="#fff" font-size="41" font-family="PTBoldHeading, PT Heading"><tspan x="-186.462" y="0">بلدية الجنيد</tspan></text>
    <g id="Group_13243" data-name="Group 13243" transform="translate(0 312)">
      <path id="Path_29394" data-name="Path 29394" d="M391.878,473.852V442.963l-29.136-16.821v33.066l-27.135,15.666V442.387l-28.636,16.532-27.637-15.954v-30.31a1.927,1.927,0,0,0,1.388-2.4l26.5-15.3.25-.144V361.168L278.836,377.7,250.7,361.455,222.563,377.7l-27.636-15.956V329.834L223.563,313.3l-28.636-16.532V263.7L166.04,280.38l-.25.144v31.912L140.042,297.57a1.927,1.927,0,0,0-1.388-2.4v-62.8l27.886-16.1.25-.143V182.482L137.9,199.16l-.25.143v32.492L110.019,247.75,82.88,232.083l27.389-15.814.25-.143V182.482L81.633,199.16l-.25.143v64.4L55.634,248.84a1.923,1.923,0,0,0-1.388-2.4V215.551L26.61,199.6l27.136-15.666.5.288v-.577l.5-.289-.5-.288v-32.49L27.5,135.13a1.96,1.96,0,1,0-2.388,1.378v30.31L-3.525,183.351,24.61,199.6-2.775,215.407l-.25.144v32.488l-.5.289.5.288v32.49L24.6,297.055-2.8,312.872l-.25.143v33.642L25.839,329.98l.25-.143V297.915l.021.012V264.862L52.353,249.71a1.964,1.964,0,0,0,.893.509V281.1l27.636,15.954L53.5,312.869l-.25.143v32.5l-26.22,15.138a1.96,1.96,0,1,0-1.893,3.272v62.759L-2.8,442.811l-.25.144V476.6l.045-.026v31.937l28.136,16.243v.579l.5-.289.5.288v-.577l27.886-16.1.25-.144V474.866L27.026,490.6a1.959,1.959,0,0,0-2.787,0L-1.526,475.72l26.659-15.392v.032l28.635-16.532L82.4,460.36V427.284L110.269,411.2l.25-.144V380.168a1.959,1.959,0,1,0-2.463-1.89,1.926,1.926,0,0,0,.076.512l-26.5,15.3-.25.144v31.9L54.269,410.476V346.064l27.613-15.942,28.637,16.532V313.59l26.242-15.15a1.97,1.97,0,0,0,.893.509v30.887L164.4,345.279a1.782,1.782,0,0,0,0,1.023l-26.5,15.3-.25.144v64.938L111.57,441.746a1.959,1.959,0,1,0-2.1,3.027V476.6l28.135-16.244v31.911l29.136,16.822V475.443L139.138,459.5l27.152-15.676,26.25,15.154a1.927,1.927,0,0,0-.077.512,1.964,1.964,0,1,0,2.464-1.891V394.81l27.636-15.957L249.7,394.521l-27.385,15.812-.25.143v32.489l-.5.289.5.288v31.912l-27.886,16.1-.25.144v33.641l28.886-16.676.25-.144V476.609L250.2,492.276v.577l.5-.288L279.334,509.1V477.633a1.955,1.955,0,0,0,.895-.51l26.242,15.15V525.33l28.136-16.244v.007l28.885-16.676.25-.144v-31.91l25.75,14.866a1.939,1.939,0,0,0-.076.513,1.963,1.963,0,1,0,2.462-1.89ZM82.383,199.882l27.136-15.667v31.332L82.383,231.215ZM25.089,329.258-2.048,344.924V313.593l27.137-15.666ZM53.269,476.6v31.333L26.133,523.6V493.867a1.922,1.922,0,0,0,1.387-2.4ZM25.133,493.867V523.6L-2,507.931V476.6l25.748,14.866a1.926,1.926,0,0,0,1.388,2.4Zm309.474-18.423-27.136,15.667V459.786l27.136-15.666Zm-56.273-1.592a1.959,1.959,0,0,0-.893.509L251.7,459.5l26.635-15.378ZM251.2,426.72V395.387l25.749,14.867a1.925,1.925,0,0,0,1.387,2.4v29.732Zm27.136-17.846a1.95,1.95,0,0,0-.893.509L251.7,394.521l26.636-15.379ZM250.7,427.587l27.136,15.667-12.327,7.117L250.7,458.92l-27.136-15.666,12.327-7.118Zm.5,32.777,25.749,14.867a1.782,1.782,0,0,0,0,1.023L251.2,491.121Zm55.273-66.132-26.243,15.15a1.968,1.968,0,0,0-.894-.509V378.567L306.471,362.9ZM166.79,343.9V314.168l27.137,15.667v31.333L168.178,346.3a1.922,1.922,0,0,0-1.388-2.4Zm0,3.782a1.956,1.956,0,0,0,.894-.51l25.741,14.861L166.79,377.41Zm27.637-18.714L167.291,313.3l13.309-7.684,13.827-7.983L221.563,313.3ZM166.79,281.1l27.137-15.668v31.334L166.79,312.435Zm-28.136-81.22,27.136-15.667v31.332l-27.136,15.668Zm-1,64.4-8.877,5.125-18.258,10.541V248.617l27.135-15.667Zm-28.135,48.152L95.951,304.6l-13.568-7.833V265.438l13.568,7.833,13.568,7.833ZM82.383,232.951l27.136,15.666v31.332l-13.568-7.833-13.568-7.833ZM53.246,246.438a1.95,1.95,0,0,0-.892.508L26.11,231.795V200.462l27.136,15.667Zm0-95.287v31.334L26.11,166.817V136.509A1.963,1.963,0,0,0,27,136ZM25.61,167.684l27.136,15.667L26.11,198.73h0l-.5.289-.5-.289h0L-1.525,183.351ZM-2.025,216.129,25.11,200.462v31.333L-2.025,247.462Zm0,33.065L25.11,264.862V296.2L-2.025,280.528ZM25.611,264-1.525,248.328,10.8,241.211l14.808-8.55,26.249,15.155a1.785,1.785,0,0,0,0,1.024Zm28.635-13.777a1.963,1.963,0,0,0,.894-.509l26.243,15.151v31.331L54.246,280.526Zm0,63.372,27.137-15.667v31.331L54.246,344.922ZM26.133,363.925a1.959,1.959,0,0,0,1.463-1.891,1.919,1.919,0,0,0-.076-.511l25.749-14.866v31.332L26.133,393.655Zm27.136,46.55L26.133,426.141V394.81l27.136-15.666ZM25.089,459.2-2.048,474.866V443.533l27.137-15.668Zm1.044-31.9L53.269,411.63v31.332L26.133,458.628Zm56.25-32.487,26.243-15.15a1.949,1.949,0,0,0,.893.508v30.307L82.383,426.141ZM81.4,427.861v30.767L54.269,442.962V411.63l27.114,15.654v.59Zm28.115-82.939L82.383,329.255v-31.33l13.568,7.832,13.568,7.834Zm1-32.487v-31.33l15.506-8.953,11.629-6.714v29.729a1.96,1.96,0,0,0-1.463,1.891,1.927,1.927,0,0,0,.077.512Zm28.135,16.822V298.949a1.959,1.959,0,0,0,.893-.509l26.243,15.152V343.9a1.95,1.95,0,0,0-.892.508Zm0,33.067L164.9,347.173a1.959,1.959,0,0,0,.893.509v30.3l-.5.289h0l-26.638,15.378Zm0,64.973L165.79,411.63v31.332l-27.136,15.666Zm27.136-16.822-27.136,15.666V394.81l27.136-15.666Zm-55.315,64.391V444.773a1.96,1.96,0,0,0,1.463-1.891,1.827,1.827,0,0,0-.019-.183l25.691-14.834V459.2Zm55.271,32.488L138.61,491.687V460.354l27.136,15.667ZM193.927,457.6a1.959,1.959,0,0,0-.893.509l-26.244-15.15v-31.33L193.927,427.3ZM166.79,410.475V379.142l27.137,15.668v31.331Zm27.637-16.531L167.29,378.276l27.135-15.666.5.29v0l26.636,15.378ZM250.7,362.609l27.136,15.667L251.2,393.655h0l-.5.288-.5-.288h0l-26.635-15.379Zm-27.635,48.445L250.2,395.387V426.72l-27.135,15.667Zm-1,96.886-27.136,15.666V492.275l27.136-15.666Zm1-32.486V444.12L250.2,459.787v31.334ZM251.7,491.987l25.742-14.863a1.964,1.964,0,0,0,.893.509v29.732Zm27.635-18.135V444.12l27.137,15.666v31.332l-25.749-14.866a1.924,1.924,0,0,0-1.388-2.4ZM307.471,523.6V492.273l27.136-15.667v31.325Zm55.271-31.9-27.135,15.666V476.029l27.135-15.666Zm1-32.487V427.875l27.136,15.667v30.31a1.951,1.951,0,0,0-.892.508Z" fill="url(#linear-gradient)"/>
    </g>
    <g id="Group_13244" data-name="Group 13244" transform="translate(7 -155.345)">
      <path id="Path_29394-2" data-name="Path 29394" d="M-2.062,184.141V215.03l29.136,16.821V198.785l27.135-15.666v32.487l28.636-16.532,27.637,15.954v30.31a1.927,1.927,0,0,0-1.388,2.4l-26.5,15.3-.25.144v33.642l28.635-16.532,28.138,16.245,28.135-16.244L194.89,296.25v31.909l-28.636,16.533,28.636,16.532v33.067l28.887-16.678.25-.144V345.557l25.748,14.866a1.927,1.927,0,0,0,1.388,2.4v62.8l-27.886,16.1-.25.143v33.644l28.886-16.678.25-.143V426.2L279.8,410.243l27.139,15.667-27.389,15.814-.25.143v33.644l28.886-16.678.25-.143v-64.4l25.749,14.866a1.923,1.923,0,0,0,1.388,2.4v30.886L363.207,458.4l-27.136,15.666-.5-.288v.577l-.5.289.5.288v32.49l26.748,15.443a1.96,1.96,0,1,0,2.388-1.378v-30.31l28.635-16.533L365.207,458.4l27.385-15.812.25-.144V409.954l.5-.289-.5-.288v-32.49l-27.624-15.949,27.4-15.817.25-.143V311.336l-28.887,16.677-.25.143v31.922l-.021-.012v33.065l-26.243,15.152a1.965,1.965,0,0,0-.893-.509V376.889l-27.636-15.954,27.386-15.811.25-.143v-32.5l26.22-15.138a1.96,1.96,0,1,0,1.893-3.272V231.309l27.931-16.127.25-.144V181.4l-.045.026V149.484l-28.136-16.243v-.579l-.5.289-.5-.288v.577L335.8,149.34l-.25.144v33.643L362.791,167.4a1.959,1.959,0,0,0,2.787,0l25.765,14.875-26.659,15.392v-.032l-28.635,16.532-28.636-16.532v33.076L279.548,246.8l-.25.144v30.885a1.959,1.959,0,1,0,2.463,1.89,1.926,1.926,0,0,0-.076-.512l26.5-15.3.25-.144v-31.9l27.114,15.653v64.412l-27.613,15.942L279.3,311.339V344.4l-26.242,15.15a1.97,1.97,0,0,0-.893-.509V328.157l-26.749-15.443a1.782,1.782,0,0,0,0-1.023l26.5-15.3.25-.144V231.309l26.084-15.062a1.959,1.959,0,1,0,2.1-3.027V181.4l-28.135,16.244V165.728l-29.136-16.822V182.55l27.608,15.939-27.152,15.676-26.25-15.154a1.927,1.927,0,0,0,.077-.512,1.964,1.964,0,1,0-2.464,1.891v62.793L167.253,279.14l-27.135-15.668L167.5,247.66l.25-.143V215.028l.5-.289-.5-.288V182.539l27.886-16.1.25-.144V132.655L167,149.331l-.25.144v31.909l-27.135-15.667v-.577l-.5.288L110.482,148.9V180.36a1.955,1.955,0,0,0-.895.51L83.345,165.72V132.663L55.209,148.907V148.9L26.324,165.576l-.25.144v31.91L.324,182.764a1.939,1.939,0,0,0,.076-.513,1.963,1.963,0,0,0-1.963-1.963,1.962,1.962,0,0,0-1.962,1.963A1.957,1.957,0,0,0-2.062,184.141Zm309.5,273.97L280.3,473.778V442.446l27.136-15.668Zm57.294-129.376,27.137-15.666V344.4l-27.137,15.666ZM336.548,181.4V150.062L363.684,134.4v29.731a1.922,1.922,0,0,0-1.387,2.4Zm28.136-17.269V134.4l27.136,15.666v31.332l-25.748-14.866a1.926,1.926,0,0,0-1.388-2.4ZM55.209,182.549l27.136-15.667v31.325L55.209,213.873Zm56.273,1.592a1.959,1.959,0,0,0,.893-.509L138.117,198.5l-26.635,15.378Zm27.136,47.132v31.333l-25.749-14.867a1.925,1.925,0,0,0-1.387-2.4V215.606Zm-27.136,17.846a1.95,1.95,0,0,0,.893-.509l25.743,14.862-26.636,15.379Zm27.636-18.713-27.136-15.667,12.327-7.117,14.808-8.549,27.136,15.666-12.327,7.118Zm-.5-32.777-25.749-14.867a1.782,1.782,0,0,0,0-1.023l25.749-14.867ZM83.345,263.761l26.243-15.15a1.968,1.968,0,0,0,.894.509v30.306L83.345,295.093Zm139.681,50.332v29.732L195.89,328.158V296.825l25.749,14.866a1.922,1.922,0,0,0,1.388,2.4Zm0-3.782a1.956,1.956,0,0,0-.894.51L196.392,295.96l26.635-15.377ZM195.39,329.025l27.136,15.667-13.309,7.684-13.827,7.983-27.136-15.667Zm27.637,47.866L195.89,392.559V361.225l27.137-15.667Zm28.136,81.22-27.136,15.667V442.446l27.136-15.668Zm1-64.4,8.877-5.125L279.3,378.044v31.332l-27.135,15.667ZM280.3,345.558l13.568,7.833,13.568,7.833v31.331l-13.568-7.833L280.3,376.889Zm27.136,79.484L280.3,409.376V378.044l13.568,7.833,13.568,7.833Zm29.137-13.487a1.951,1.951,0,0,0,.892-.508L363.707,426.2v31.333l-27.136-15.667Zm0,95.287V475.508l27.136,15.668v30.308a1.963,1.963,0,0,0-.894.509Zm27.636-16.533-27.136-15.667,26.636-15.379h0l.5-.289.5.289h0l26.635,15.379Zm27.635-48.445-27.135,15.667V426.2l27.135-15.667Zm0-33.065-27.135-15.668V361.8l27.135,15.667ZM364.206,394l27.136,15.668-12.327,7.117-14.808,8.55-26.249-15.155a1.785,1.785,0,0,0,0-1.024Zm-28.635,13.777a1.963,1.963,0,0,0-.894.509l-26.243-15.151V361.8l27.137,15.666Zm0-63.372-27.137,15.667V328.738l27.137-15.667Zm28.113-50.334a1.959,1.959,0,0,0-1.463,1.891,1.919,1.919,0,0,0,.076.511l-25.749,14.866V280l27.136-15.666Zm-27.136-46.55,27.136-15.666v31.331l-27.136,15.666Zm28.18-48.724,27.137-15.667V214.46l-27.137,15.668Zm-1.044,31.9-27.136,15.667V215.031l27.136-15.666Zm-56.25,32.487-26.243,15.15a1.949,1.949,0,0,0-.893-.508V247.518l27.136-15.666Zm.979-33.051V199.365l27.135,15.666v31.332l-27.114-15.654v-.59ZM280.3,313.071l27.136,15.667v31.33l-13.568-7.832L280.3,344.4Zm-1,32.487v31.33l-15.506,8.953-11.629,6.714V362.826a1.96,1.96,0,0,0,1.463-1.891,1.927,1.927,0,0,0-.077-.512Zm-28.135-16.822v30.308a1.959,1.959,0,0,0-.893.509L224.027,344.4V314.092a1.95,1.95,0,0,0,.892-.508Zm0-33.067L224.92,310.82a1.959,1.959,0,0,0-.893-.509v-30.3l.5-.289h0l26.638-15.378Zm0-64.973-27.136,15.667V215.031l27.136-15.666Zm-27.136,16.822,27.136-15.666v31.331l-27.136,15.666Zm55.315-64.391V213.22a1.96,1.96,0,0,0-1.463,1.891,1.834,1.834,0,0,0,.019.183l-25.691,14.834V198.794Zm-55.271-32.488,27.136,15.667v31.333l-27.136-15.667ZM195.89,200.39a1.959,1.959,0,0,0,.893-.509l26.244,15.15v31.33L195.89,230.7Zm27.137,47.128v31.333L195.89,263.183V231.852ZM195.39,264.049l27.137,15.668-27.135,15.666-.5-.29v0l-26.636-15.378Zm-56.271,31.335-27.136-15.667,26.636-15.379h0l.5-.288.5.288h0l26.635,15.379Zm27.635-48.445-27.135,15.667V231.273l27.135-15.667Zm1-96.886,27.136-15.666v31.331l-27.136,15.666Zm-1,32.486v31.334l-27.135-15.667V166.872Zm-28.636-16.533-25.742,14.863a1.964,1.964,0,0,0-.893-.509V150.628Zm-27.635,18.135v29.732L83.345,198.207V166.875l25.749,14.866a1.924,1.924,0,0,0,1.388,2.4ZM82.345,134.4V165.72L55.209,181.387V150.062ZM27.074,166.3l27.135-15.666v31.332L27.074,197.63Zm-1,32.487v31.333L-1.062,214.451v-30.31a1.951,1.951,0,0,0,.892-.508Z" transform="translate(3.525 -132.655)" fill="url(#linear-gradient-2)"/>
    </g>
  </g>
</svg>
